# xmcd
#
# Track frame offsets:
#	150
#	12761
#	25745
#	40378
#	54138
#	67190
#	80940
#	93335
#	105988
#	117992
#	129477
#	146092
#	160896
#	172746
#	184824
#	199108
#	213654
#	225779
#	236859
#	250911
#	262917
#	277214
#	288831
#	301300
#	312905
#
# Disc length: 4346 seconds
#
# Revision: 1852140592
# Processed by: cddbd v1.5.2PL0 Copyright (c) Steve Scherf et al.
# Submitted via: EZCDAudioConverter 8.0.6.1
#
DISCID=5e10f819
DTITLE=Nat King Cole - Nat King Cole (Signature) (2007)
DYEAR=2007
DGENRE=Blues
TTITLE0=Jet
TTITLE1=Somewhere Along The Way
TTITLE2=Mona Lisa
TTITLE3=If I May
TTITLE4=Smile
TTITLE5=Here's To My Lady
TTITLE6=I'll Never Say (Never Again) Again
TTITLE7=Love Is Here To Stay
TTITLE8=Walkin' My Baby Back Home
TTITLE9=The Sand and The Sea
TTITLE10=Nat Meets June
TTITLE11=Lush Life
TTITLE12=Answer Me, My Love
TTITLE13=Autumn Leaves
TTITLE14=I'm In The Mood For Love
TTITLE15=Land Of Love (Come My Love and Live With Me)
TTITLE16=Song Of Delilah
TTITLE17=You're The Cream In My Cofee
TTITLE18=A Portrait Of Jennie
TTITLE19=Save The Bones For Henry Jones
TTITLE20=Because You're Mine
TTITLE21=You Stepped Out Of The Dream
TTITLE22=If Love Is Good For Me
TTITLE23=A Blossom Fell
TTITLE24=There Goes My Heart
EXTD=
EXTT0=
EXTT1=
EXTT2=
EXTT3=
EXTT4=
EXTT5=
EXTT6=
EXTT7=
EXTT8=
EXTT9=
EXTT10=
EXTT11=
EXTT12=
EXTT13=
EXTT14=
EXTT15=
EXTT16=
EXTT17=
EXTT18=
EXTT19=
EXTT20=
EXTT21=
EXTT22=
EXTT23=
EXTT24=
PLAYORDER=
